<?xml version="1.0" standalone="no"?>
<!DOCTYPE svg PUBLIC "-//W3C//DTD SVG 20010904//EN"
 "http://www.w3.org/TR/2001/REC-SVG-20010904/DTD/svg10.dtd">
<svg version="1.0" xmlns="http://www.w3.org/2000/svg"
 width="752.000000pt" height="752.000000pt" viewBox="0 0 752.000000 752.000000"
 preserveAspectRatio="xMidYMid meet">

<g transform="translate(0.000000,752.000000) scale(0.100000,-0.100000)"
fill="#000000" stroke="none">
<path d="M20 3770 l0 -3750 3745 0 3745 0 0 3750 0 3750 -3745 0 -3745 0 0
-3750z m4118 123 l-3 -258 -468 -3 -467 -2 2 -498 3 -497 403 -3 402 -2 0
-255 0 -255 -405 0 -405 0 0 -770 0 -770 -280 0 -280 0 0 1785 0 1785 750 0
750 0 -2 -257z m971 230 c6 -16 55 -149 109 -298 294 -804 567 -1536 570
-1529 1 5 155 423 340 929 l337 920 258 3 257 2 0 -1785 0 -1785 -280 0 -280
0 -2 1093 -3 1092 -238 -712 -239 -713 -159 0 -158 0 -233 703 -233 702 -3
-1082 -2 -1083 -280 0 -280 0 0 1785 0 1785 254 0 254 0 11 -27z"/>
</g>
</svg>
